<svg xmlns="http://www.w3.org/2000/svg" width="256" height="256" preserveAspectRatio="none" style="display: block;"
  version="1.1" viewBox="0 0 1024 1024">
  <defs>
    <pattern id="_11sbt4mq" patternUnits="userSpaceOnUse" width="409.6" height="409.6" patternTransform="rotate(-30)">
      <text x="204.8" y="204.8" font-family="Arial,Helvetica,sans-serif" font-size="34.13333333333333"
        fill="rgba(0,0,0,0.045)" font-weight="600" text-anchor="middle" letter-spacing="3">VECTOSOLVE</text></pattern>
  </defs>
  <path fill="rgb(241,242,225)"
    d="M5.022 257.805C19.594 248.987 37.118 243.954 52.379 235.703C88.093 216.393 124.974 199.831 161.734 182.843C201.27 163.199 239.483 142.919 280.175 125.644C307.662 113.974 335.559 95.992 363.154 84.191C413.348 62.725 460.626 35.896 510.561 14.01C518.253 10.639 526.747 6.03 534.374 3.199C547.817 8.994 563.756 17.624 577.113 24.336L652.691 62.222L895.377 183.487L978.051 224.91C990.992 231.397 1006.67 239.849 1019.59 245.724C975.919 269.329 931.804 294.983 888.127 318.956C864.153 332.115 825.708 351.954 803.99 366.455C819.969 373.027 834.685 381.793 850.238 388.932C886.503 405.576 923.255 422.277 958.495 441.069C978.7 451.843 1002.88 460.308 1021.95 471.448C1017.78 474.381 1013.45 477.524 1009.16 480.263C953.398 515.909 892.828 546.557 837.834 583.295C844.197 590.401 911.328 619.626 921.601 624.578L993.767 658.861C1001.61 662.548 1016.34 670.643 1024 672.621L1024 675.842C1001.88 687.203 966.473 714.568 944.15 729.477A16091 16091 0 0 0 714.386 886.609C662.125 922.415 609.05 957.682 557.068 993.863C546.141 1001.47 522.264 1016.37 514.354 1024L509.534 1024C498.132 1012.98 473.612 997.337 460.179 987.857A7435 7435 0 0 0 365.834 921.404L157.432 774.628L68.322 712.287C58.806 705.687 4.39 670.228 3.372 662.661C8.836 659.091 19.216 655.383 25.48 652.391C38.112 646.358 50.89 640.578 63.685 634.899L180.882 581.921C170.351 574.742 159.488 568.481 148.781 561.618L49.611 498.542C33.807 488.294 17.073 479.751 2.941 467.293C20.231 456.528 43.583 446.129 61.829 436.761C98.902 417.725 137.242 400.555 173.308 379.648C183.512 373.732 195.455 368.721 205.166 362.14C177.653 350.044 159.154 337.993 133.687 324.957L51.852 282.078C36.198 273.879 20.392 266.637 5.022 257.805Z">
  </path>
  <path fill="rgb(254,254,247)"
    d="M5.022 257.805C19.594 248.987 37.118 243.954 52.379 235.703C88.093 216.393 124.974 199.831 161.734 182.843C201.27 163.199 239.483 142.919 280.175 125.644C307.662 113.974 335.559 95.992 363.154 84.191C413.348 62.725 460.626 35.896 510.561 14.01C518.253 10.639 526.747 6.03 534.374 3.199C547.817 8.994 563.756 17.624 577.113 24.336L652.691 62.222L895.377 183.487L978.051 224.91C990.992 231.397 1006.67 239.849 1019.59 245.724C975.919 269.329 931.804 294.983 888.127 318.956C864.153 332.115 825.708 351.954 803.99 366.455L803.614 366.685C797.995 370.17 793.57 374.08 787.214 377.75C747.647 400.595 707.153 422.231 667.239 444.42A16828 16828 0 0 1 515.38 528.736C498.104 517.265 465.087 502.362 445.941 491.333C441.567 489.779 418.419 477.096 413.153 474.326L337.13 434.455C326.895 429.053 303.329 415.902 293.233 412.098C270.005 398.342 222.542 378.303 205.166 362.14C177.653 350.044 159.154 337.993 133.687 324.957L51.852 282.078C36.198 273.879 20.392 266.637 5.022 257.805Z">
  </path>
  <path fill="rgb(241,242,225)"
    d="M517.972 72.794C521.989 73.863 545.839 85.976 550.531 88.322L621.354 123.792L769.271 197.154C793.437 209.181 819.281 221.555 842.984 234.245L784.883 267.909C783.227 268.863 778.857 271.561 776.988 270.765C768.464 267.132 760.225 262.685 751.998 258.422L694.813 228.795L459.143 107.989C476.634 96.515 499.705 83.459 517.972 72.794Z">
  </path>
  <path fill="rgb(212,213,201)"
    d="M180.882 581.921C189.414 586.757 200.802 594.699 209.416 600.185L272.919 640.5L364.335 698.176C379.166 707.575 396.644 718.089 410.875 727.866C437.635 743.254 473.949 767.097 499.888 784.235L607.491 720.063C626.762 708.559 648.696 694.78 668.247 684.203C674.579 679.875 682.73 675.112 689.43 671.332C739.174 643.268 787.875 610.746 837.834 583.295C844.197 590.401 911.328 619.626 921.601 624.578L993.767 658.861C1001.61 662.548 1016.34 670.643 1024 672.621L1024 675.842C1001.88 687.203 966.473 714.568 944.15 729.477A16091 16091 0 0 0 714.386 886.609C662.125 922.415 609.05 957.682 557.068 993.863C546.141 1001.47 522.264 1016.37 514.354 1024L509.534 1024C498.132 1012.98 473.612 997.337 460.179 987.857A7435 7435 0 0 0 365.834 921.404L157.432 774.628L68.322 712.287C58.806 705.687 4.39 670.228 3.372 662.661C8.836 659.091 19.216 655.383 25.48 652.391C38.112 646.358 50.89 640.578 63.685 634.899Z">
  </path>
  <path fill="rgb(187,186,178)"
    d="M668.247 684.203C674.803 688.963 695.533 696.744 703.993 700.507C731.24 712.628 761.227 723.435 788.002 736.285L605.412 863.288L548.929 902.699C540.198 908.784 526.213 919.058 517.339 924.194C499.954 910.132 462.909 887.019 442.795 873.631L302.74 780.231C329.361 765.794 359.274 753.856 386.422 740.099C391.072 737.743 408.118 730.296 410.875 727.866C437.635 743.254 473.949 767.097 499.888 784.235L607.491 720.063C626.762 708.559 648.696 694.78 668.247 684.203Z">
  </path>
  <path fill="rgb(212,213,201)"
    d="M293.233 412.098C303.329 415.902 326.895 429.053 337.13 434.455L413.153 474.326C418.419 477.096 441.567 489.779 445.941 491.333L312.164 570.149C260.998 540.664 205.94 508.29 154.206 480.092L247.125 435.25C255.859 431.057 286.612 416.817 293.233 412.098Z">
  </path>
  <g id="_5dgr4wxr" pointer-events="none" style="mix-blend-mode:multiply">
    <rect width="100%" height="100%" fill="url(#_11sbt4mq)"></rect>
  </g>
  <g pointer-events="none"><text x="1016.0" y="1018.0" font-family="Arial,Helvetica,sans-serif" font-size="20.48"
      fill="rgba(0,0,0,0.12)" font-weight="700" text-anchor="end" letter-spacing="0.5">vectosolve.com</text></g>
</svg>